<mxfile host="app.diagrams.net" modified="2023-07-03T14:09:12.939Z" agent="Mozilla/5.0 (Linux; Android 9) AppleWebKit/537.36 (KHTML, like Gecko) YaBrowser/23.5.3.904 YaBrowser/23.5.3.904 Yowser/2.5 Mobile Safari/537.36" version="21.5.2" etag="HxEHwFuKoGAfBbPoT4Fc" type="github">
  <diagram name="Страница 1" id="ss_lZVEfZOAidG5OcwU-">
    <mxGraphModel>
      <root>
        <mxCell id="0" />
        <mxCell id="1" parent="0" />
      </root>
    </mxGraphModel>
  </diagram>
</mxfile>
